<?xml version="1.0" encoding="UTF-8" standalone="no"?><!DOCTYPE svg PUBLIC "-//W3C//DTD SVG 1.1//EN" "http://www.w3.org/Graphics/SVG/1.1/DTD/svg11.dtd"><!-- Generated by graphviz version 2.40.1 (20161225.0304)
 --><!-- Title: tree Pages: 1 --><svg xmlns="http://www.w3.org/2000/svg" xmlns:xlink="http://www.w3.org/1999/xlink" width="569pt" height="332pt" viewBox="0.00 0.00 568.84 332.00">
<g id="graph0" class="graph" transform="scale(1 1) rotate(0) translate(4 328)">
<title>tree</title>
<polygon fill="#ffffff" stroke="transparent" points="-4,4 -4,-328 564.8449,-328 564.8449,4 -4,4"/>
<!-- 0. mieszka: wieś -->
<g id="node1" class="node">
<title>0. mieszka: wieś</title>
<ellipse fill="none" stroke="#000000" cx="359.0733" cy="-306" rx="77.0043" ry="18"/>
<text text-anchor="middle" x="359.0733" y="-301.8" font-family="Times,serif" font-size="14.00" fill="#000000">0. mieszka: wieś</text>
</g>
<!-- 1a. wiek: &lt;20 -->
<g id="node2" class="node">
<title>1a. wiek: &lt;20</title>
<ellipse fill="none" stroke="#000000" cx="265.0733" cy="-234" rx="63.9016" ry="18"/>
<text text-anchor="middle" x="265.0733" y="-229.8" font-family="Times,serif" font-size="14.00" fill="#000000">1a. wiek: &lt;20</text>
</g>
<!-- 0. mieszka: wieś&#45;&gt;1a. wiek: &lt;20 -->
<g id="edge1" class="edge">
<title>0. mieszka: wieś-&gt;1a. wiek: &lt;20</title>
<path fill="none" stroke="#000000" d="M336.3185,-288.5708C323.9896,-279.1273 308.5955,-267.3361 295.2745,-257.1328"/>
<polygon fill="#000000" stroke="#000000" points="297.3613,-254.3225 287.2942,-251.0202 293.1047,-259.8796 297.3613,-254.3225"/>
</g>
<!-- 1b. konkluzja: Telewizja -->
<g id="node9" class="node">
<title>1b. konkluzja: Telewizja</title>
<ellipse fill="none" stroke="#000000" cx="454.0733" cy="-234" rx="106.5437" ry="18"/>
<text text-anchor="middle" x="454.0733" y="-229.8" font-family="Times,serif" font-size="14.00" fill="#000000">1b. konkluzja: Telewizja</text>
</g>
<!-- 0. mieszka: wieś&#45;&gt;1b. konkluzja: Telewizja -->
<g id="edge2" class="edge">
<title>0. mieszka: wieś-&gt;1b. konkluzja: Telewizja</title>
<path fill="none" stroke="#000000" d="M382.0702,-288.5708C394.1425,-279.4213 409.1227,-268.0679 422.2878,-258.0901"/>
<polygon fill="#000000" stroke="#000000" points="424.7726,-260.5985 430.6283,-251.7689 420.5445,-255.0197 424.7726,-260.5985"/>
</g>
<!-- 2a. płeć: K -->
<g id="node3" class="node">
<title>2a. płeć: K</title>
<ellipse fill="none" stroke="#000000" cx="178.0733" cy="-162" rx="57.3455" ry="18"/>
<text text-anchor="middle" x="178.0733" y="-157.8" font-family="Times,serif" font-size="14.00" fill="#000000">2a. płeć: K</text>
</g>
<!-- 1a. wiek: &lt;20&#45;&gt;2a. płeć: K -->
<g id="edge3" class="edge">
<title>1a. wiek: &lt;20-&gt;2a. płeć: K</title>
<path fill="none" stroke="#000000" d="M244.4555,-216.937C233.079,-207.522 218.7835,-195.6912 206.3751,-185.4221"/>
<polygon fill="#000000" stroke="#000000" points="208.4786,-182.6198 198.5431,-178.9405 204.0156,-188.0126 208.4786,-182.6198"/>
</g>
<!-- 2b. konkluzja: Internet -->
<g id="node8" class="node">
<title>2b. konkluzja: Internet</title>
<ellipse fill="none" stroke="#000000" cx="352.0733" cy="-162" rx="98.9611" ry="18"/>
<text text-anchor="middle" x="352.0733" y="-157.8" font-family="Times,serif" font-size="14.00" fill="#000000">2b. konkluzja: Internet</text>
</g>
<!-- 1a. wiek: &lt;20&#45;&gt;2b. konkluzja: Internet -->
<g id="edge4" class="edge">
<title>1a. wiek: &lt;20-&gt;2b. konkluzja: Internet</title>
<path fill="none" stroke="#000000" d="M285.6911,-216.937C296.8203,-207.7266 310.743,-196.2044 322.9597,-186.094"/>
<polygon fill="#000000" stroke="#000000" points="325.2225,-188.7645 330.695,-179.6924 320.7595,-183.3717 325.2225,-188.7645"/>
</g>
<!-- 3a. konkluzja: Prasa -->
<g id="node4" class="node">
<title>3a. konkluzja: Prasa</title>
<ellipse fill="none" stroke="#000000" cx="89.0733" cy="-90" rx="89.1467" ry="18"/>
<text text-anchor="middle" x="89.0733" y="-85.8" font-family="Times,serif" font-size="14.00" fill="#000000">3a. konkluzja: Prasa</text>
</g>
<!-- 2a. płeć: K&#45;&gt;3a. konkluzja: Prasa -->
<g id="edge5" class="edge">
<title>2a. płeć: K-&gt;3a. konkluzja: Prasa</title>
<path fill="none" stroke="#000000" d="M156.9816,-144.937C145.5965,-135.7266 131.3538,-124.2044 118.8562,-114.094"/>
<polygon fill="#000000" stroke="#000000" points="120.9189,-111.2608 110.9431,-107.6924 116.5163,-116.703 120.9189,-111.2608"/>
</g>
<!-- 3b. wiek: 20&#45;30 -->
<g id="node5" class="node">
<title>3b. wiek: 20-30</title>
<ellipse fill="none" stroke="#000000" cx="268.0733" cy="-90" rx="71.8375" ry="18"/>
<text text-anchor="middle" x="268.0733" y="-85.8" font-family="Times,serif" font-size="14.00" fill="#000000">3b. wiek: 20-30</text>
</g>
<!-- 2a. płeć: K&#45;&gt;3b. wiek: 20&#45;30 -->
<g id="edge6" class="edge">
<title>2a. płeć: K-&gt;3b. wiek: 20-30</title>
<path fill="none" stroke="#000000" d="M199.4021,-144.937C211.0856,-135.5902 225.7452,-123.8625 238.5163,-113.6456"/>
<polygon fill="#000000" stroke="#000000" points="240.9635,-116.1701 246.5858,-107.19 236.5906,-110.704 240.9635,-116.1701"/>
</g>
<!-- 4a. konkluzja: Telewizja -->
<g id="node6" class="node">
<title>4a. konkluzja: Telewizja</title>
<ellipse fill="none" stroke="#000000" cx="161.0733" cy="-18" rx="106.4602" ry="18"/>
<text text-anchor="middle" x="161.0733" y="-13.8" font-family="Times,serif" font-size="14.00" fill="#000000">4a. konkluzja: Telewizja</text>
</g>
<!-- 3b. wiek: 20&#45;30&#45;&gt;4a. konkluzja: Telewizja -->
<g id="edge7" class="edge">
<title>3b. wiek: 20-30-&gt;4a. konkluzja: Telewizja</title>
<path fill="none" stroke="#000000" d="M242.9866,-73.1192C228.8105,-63.5801 210.8849,-51.5181 195.4195,-41.1115"/>
<polygon fill="#000000" stroke="#000000" points="197.3707,-38.2058 187.1202,-35.5269 193.4628,-44.0134 197.3707,-38.2058"/>
</g>
<!-- 4b. konkluzja: Prasa -->
<g id="node7" class="node">
<title>4b. konkluzja: Prasa</title>
<ellipse fill="none" stroke="#000000" cx="375.0733" cy="-18" rx="89.7303" ry="18"/>
<text text-anchor="middle" x="375.0733" y="-13.8" font-family="Times,serif" font-size="14.00" fill="#000000">4b. konkluzja: Prasa</text>
</g>
<!-- 3b. wiek: 20&#45;30&#45;&gt;4b. konkluzja: Prasa -->
<g id="edge8" class="edge">
<title>3b. wiek: 20-30-&gt;4b. konkluzja: Prasa</title>
<path fill="none" stroke="#000000" d="M293.1601,-73.1192C307.4404,-63.51 325.5255,-51.3406 341.0678,-40.8822"/>
<polygon fill="#000000" stroke="#000000" points="343.0579,-43.7617 349.4006,-35.2751 339.15,-37.9541 343.0579,-43.7617"/>
</g>
</g>
</svg>